<svg width="32" height="32" viewBox="0 0 32 32" fill="none" xmlns="http://www.w3.org/2000/svg">
<path d="M16.7899 0.309859C17.0634 0.467332 17.2627 0.679173 17.474 0.911257C17.6356 1.07849 17.7971 1.22515 17.9738 1.37535C18.5707 1.89186 19.1144 2.46589 19.6689 3.02697C20.4212 3.78768 20.4212 3.78768 21.2156 4.5039C21.4369 4.69517 21.6404 4.90043 21.8458 5.10869C21.9211 5.1847 21.9963 5.26071 22.0738 5.33902C22.129 5.39532 22.1843 5.45162 22.2413 5.50962C22.2542 5.45661 22.2671 5.40359 22.2804 5.34897C22.3001 5.27874 22.3198 5.20851 22.3401 5.13615C22.3677 5.03216 22.3677 5.03216 22.3958 4.92607C22.5551 4.62345 22.7309 4.52881 23.0322 4.36724C23.3127 4.31662 23.5879 4.31584 23.8725 4.31747C23.9924 4.31665 23.9924 4.31665 24.1147 4.31582C24.2831 4.31519 24.4515 4.31547 24.6199 4.31659C24.8768 4.31781 25.1335 4.31481 25.3904 4.31146C25.5545 4.31138 25.7186 4.31154 25.8827 4.31197C25.959 4.31081 26.0354 4.30964 26.114 4.30844C26.4781 4.314 26.7343 4.33625 27.0281 4.56292C27.2994 4.86063 27.4194 5.08217 27.4357 5.48755C27.4275 5.61899 27.4275 5.61899 27.4191 5.75308C27.4139 5.85334 27.4086 5.9536 27.4032 6.0569C27.3972 6.16493 27.3913 6.27296 27.3851 6.38426C27.1449 9.15074 27.1449 9.15074 28.1247 11.5894C28.5231 11.994 28.9744 12.3286 29.4507 12.6354C29.8044 12.8638 30.1078 13.1307 30.4138 13.4184C30.4681 13.4694 30.5224 13.5204 30.5784 13.5729C30.7396 13.7265 30.8982 13.8823 31.0564 14.039C31.1363 14.1163 31.1363 14.1163 31.2179 14.1951C31.6574 14.6308 31.9452 15.053 32 15.6908C31.9893 16.1437 31.8717 16.5144 31.5668 16.8535C31.0539 17.3154 30.6934 17.3857 30.0091 17.3814C29.9353 17.3813 29.8616 17.3812 29.7856 17.381C29.5501 17.3805 29.3146 17.3794 29.0791 17.3783C28.9195 17.3779 28.7598 17.3775 28.6001 17.3771C28.2087 17.3761 27.8174 17.3746 27.426 17.3728C27.4262 17.4368 27.4265 17.5007 27.4267 17.5666C27.4325 19.1253 27.4369 20.6839 27.4396 22.2426C27.441 22.9964 27.4428 23.7501 27.4459 24.5039C27.4485 25.1611 27.4502 25.8184 27.4508 26.4756C27.4511 26.8234 27.4519 27.1712 27.4538 27.5189C27.4556 27.8468 27.4562 28.1747 27.4558 28.5026C27.4559 28.6791 27.4573 28.8557 27.4588 29.0322C27.4561 29.8311 27.4085 30.6303 26.8438 31.2462C26.7901 31.3076 26.7364 31.369 26.6811 31.4322C25.9863 31.985 25.3011 32.0086 24.4378 31.9945C24.3219 31.994 24.206 31.9935 24.0866 31.993C23.781 31.9917 23.4755 31.9882 23.17 31.9843C22.8572 31.9807 22.5443 31.9791 22.2315 31.9773C21.6196 31.9736 21.0077 31.9676 20.3959 31.9602C20.3954 31.8005 20.3954 31.8005 20.3949 31.6376C20.3917 30.6305 20.3866 29.6235 20.3797 28.6165C20.3763 28.0988 20.3734 27.5812 20.3721 27.0636C20.3707 26.5633 20.3677 26.063 20.3635 25.5628C20.3622 25.3727 20.3615 25.1825 20.3614 24.9924C20.3773 23.1442 20.3773 23.1442 19.5322 21.5459C19.4292 21.4151 19.4292 21.4151 19.4292 21.2394C19.378 21.2148 19.3268 21.1902 19.2741 21.1649C19.0894 21.0696 18.9213 20.9642 18.7482 20.8494C17.489 20.0589 15.6326 20.089 14.2109 20.3754C13.7277 20.529 13.2273 20.7617 12.8663 21.1244C12.7507 21.2394 12.7507 21.2394 12.5749 21.2394C12.5503 21.2909 12.5257 21.3424 12.5004 21.3955C12.4063 21.577 12.3012 21.7362 12.185 21.9039C11.5581 22.9302 11.6545 24.0976 11.6512 25.2579C11.6497 25.4516 11.6481 25.6453 11.6464 25.8389C11.6422 26.3459 11.6396 26.8528 11.6373 27.3597C11.6347 27.8781 11.6306 28.3965 11.6266 28.9149C11.6191 29.93 11.6132 30.9451 11.6083 31.9602C10.9215 31.9683 10.2347 31.9746 9.54795 31.9784C9.22898 31.9802 8.91004 31.9827 8.59109 31.9867C8.28283 31.9905 7.97461 31.9926 7.66633 31.9935C7.49246 31.9945 7.31861 31.9972 7.14476 32C6.36778 32.0002 5.78998 31.9002 5.21528 31.3341C4.5568 30.6027 4.52796 29.7913 4.53827 28.8454C4.53837 28.7197 4.53831 28.594 4.53812 28.4684C4.53802 28.1298 4.54007 27.7913 4.54253 27.4527C4.54474 27.0979 4.54494 26.7432 4.54536 26.3884C4.54645 25.7177 4.54933 25.0471 4.55286 24.3765C4.5568 23.6125 4.55872 22.8485 4.56049 22.0844C4.56415 20.5139 4.57033 18.9434 4.57818 17.3728C4.4807 17.3747 4.38322 17.3765 4.2828 17.3784C3.91857 17.3848 3.55436 17.3888 3.19009 17.3921C3.03293 17.3939 2.87576 17.3963 2.71862 17.3993C2.49173 17.4036 2.26492 17.4056 2.03801 17.4072C1.93388 17.4099 1.93388 17.4099 1.82766 17.4127C1.32788 17.4128 0.955027 17.2973 0.535872 17.0213C0.374194 16.8425 0.374194 16.8425 0.277736 16.6643C0.227611 16.5758 0.227611 16.5758 0.176473 16.4855C-0.0514109 16.0092 -0.0407204 15.6076 0.106897 15.1049C0.267409 14.6959 0.517698 14.4332 0.830738 14.1321C0.885262 14.078 0.939787 14.0238 0.995963 13.9681C1.1693 13.7966 1.34412 13.6268 1.51899 13.4569C1.63471 13.3426 1.75033 13.2282 1.86586 13.1138C2.75003 12.2411 2.75003 12.2411 3.18211 11.8727C3.70707 11.4251 4.18148 10.921 4.66605 10.4307C5.77622 9.30732 5.77622 9.30732 6.32368 8.84134C6.78711 8.42621 7.21665 7.97314 7.65384 7.53076C8.76401 6.40742 8.76401 6.40742 9.31147 5.94145C9.7749 5.52631 10.2044 5.07325 10.6416 4.63087C11.752 3.50733 11.752 3.50733 12.1362 3.18161C12.4507 2.91427 12.737 2.62442 13.0246 2.32894C13.0727 2.27974 13.1208 2.23055 13.1703 2.17986C13.3702 1.97523 13.5699 1.77053 13.768 1.5641C15.4856 -0.222896 15.4856 -0.222896 16.7899 0.309859Z" fill="#CDD6F4"/>
</svg>
